<svg width="93" height="16" viewBox="0 0 93 16" fill="none" xmlns="http://www.w3.org/2000/svg">
<g opacity="0.7">
<rect x="0.5" y="0.5" width="92" height="15" rx="1.5" stroke="white"/>
<path d="M3.86138 11V5.4H4.71738L8.22938 9.712H7.80538V5.4H8.83738V11H7.98138L4.46938 6.688H4.89338V11H3.86138ZM10.3379 11V5.4H11.3779V10.12H14.3059V11H10.3379ZM16.8659 11V10.304L19.0899 8.192C19.2766 8.016 19.4153 7.86133 19.5059 7.728C19.5966 7.59467 19.6553 7.472 19.6819 7.36C19.7139 7.24267 19.7299 7.13333 19.7299 7.032C19.7299 6.776 19.6419 6.57867 19.4659 6.44C19.2899 6.296 19.0313 6.224 18.6899 6.224C18.4179 6.224 18.1699 6.272 17.9459 6.368C17.7273 6.464 17.5379 6.61067 17.3779 6.808L16.6499 6.248C16.8686 5.95467 17.1619 5.728 17.5299 5.568C17.9033 5.40267 18.3193 5.32 18.7779 5.32C19.1833 5.32 19.5353 5.38667 19.8339 5.52C20.1379 5.648 20.3699 5.832 20.5299 6.072C20.6953 6.312 20.7779 6.59733 20.7779 6.928C20.7779 7.10933 20.7539 7.29067 20.7059 7.472C20.6579 7.648 20.5673 7.83467 20.4339 8.032C20.3006 8.22933 20.1059 8.45067 19.8499 8.696L17.9379 10.512L17.7219 10.12H20.9939V11H16.8659ZM21.6431 9.192V8.36H23.8431V9.192H21.6431ZM25.4911 11L27.8031 5.816L28.0751 6.28H24.8991L25.3951 5.776V7.232H24.4271V5.4H28.7791V6.096L26.6031 11H25.4911ZM33.1693 11V6.28H31.3133V5.4H36.0653V6.28H34.2093V11H33.1693ZM36.8458 11V5.4H39.1498C39.6458 5.4 40.0698 5.48 40.4218 5.64C40.7791 5.8 41.0538 6.02933 41.2458 6.328C41.4378 6.62667 41.5338 6.98133 41.5338 7.392C41.5338 7.80267 41.4378 8.15733 41.2458 8.456C41.0538 8.74933 40.7791 8.976 40.4218 9.136C40.0698 9.29067 39.6458 9.368 39.1498 9.368H37.4218L37.8858 8.896V11H36.8458ZM40.5098 11L39.0938 8.968H40.2057L41.6298 11H40.5098ZM37.8858 9.008L37.4218 8.512H39.1018C39.5604 8.512 39.9044 8.41333 40.1337 8.216C40.3684 8.01867 40.4858 7.744 40.4858 7.392C40.4858 7.03467 40.3684 6.76 40.1337 6.568C39.9044 6.376 39.5604 6.28 39.1018 6.28H37.4218L37.8858 5.768V9.008ZM42.6973 11V5.4H43.7373V11H42.6973ZM45.252 11V5.4H47.556C48.052 5.4 48.476 5.48 48.828 5.64C49.1853 5.8 49.46 6.02933 49.652 6.328C49.844 6.62667 49.94 6.98133 49.94 7.392C49.94 7.80267 49.844 8.15733 49.652 8.456C49.46 8.75467 49.1853 8.984 48.828 9.144C48.476 9.304 48.052 9.384 47.556 9.384H45.828L46.292 8.896V11H45.252ZM46.292 9.008L45.828 8.504H47.508C47.9667 8.504 48.3107 8.408 48.54 8.216C48.7747 8.01867 48.892 7.744 48.892 7.392C48.892 7.03467 48.7747 6.76 48.54 6.568C48.3107 6.376 47.9667 6.28 47.508 6.28H45.828L46.292 5.768V9.008ZM50.9786 11V5.4H52.0186V10.12H54.9466V11H50.9786ZM56.7276 7.728H59.5116V8.584H56.7276V7.728ZM56.8076 10.128H59.9676V11H55.7676V5.4H59.8556V6.272H56.8076V10.128ZM63.3379 11V5.4H65.7859C66.3939 5.4 66.9273 5.51733 67.3859 5.752C67.8446 5.98667 68.2019 6.312 68.4579 6.728C68.7139 7.144 68.8419 7.63467 68.8419 8.2C68.8419 8.76 68.7139 9.25067 68.4579 9.672C68.2019 10.088 67.8446 10.4133 67.3859 10.648C66.9273 10.8827 66.3939 11 65.7859 11H63.3379ZM64.3779 10.12H65.7379C66.1593 10.12 66.5219 10.04 66.8259 9.88C67.1353 9.72 67.3726 9.496 67.5379 9.208C67.7086 8.92 67.7939 8.584 67.7939 8.2C67.7939 7.81067 67.7086 7.47467 67.5379 7.192C67.3726 6.904 67.1353 6.68 66.8259 6.52C66.5219 6.36 66.1593 6.28 65.7379 6.28H64.3779V10.12ZM69.9473 11V5.4H72.2513C72.7473 5.4 73.1713 5.48 73.5233 5.64C73.8806 5.8 74.1553 6.02933 74.3473 6.328C74.5393 6.62667 74.6353 6.98133 74.6353 7.392C74.6353 7.80267 74.5393 8.15733 74.3473 8.456C74.1553 8.74933 73.8806 8.976 73.5233 9.136C73.1713 9.29067 72.7473 9.368 72.2513 9.368H70.5233L70.9873 8.896V11H69.9473ZM73.6113 11L72.1953 8.968H73.3073L74.7313 11H73.6113ZM70.9873 9.008L70.5233 8.512H72.2033C72.662 8.512 73.006 8.41333 73.2353 8.216C73.47 8.01867 73.5873 7.744 73.5873 7.392C73.5873 7.03467 73.47 6.76 73.2353 6.568C73.006 6.376 72.662 6.28 72.2033 6.28H70.5233L70.9873 5.768V9.008ZM75.0069 11L77.5269 5.4H78.5509L81.0789 11H79.9909L77.8229 5.952H78.2389L76.0789 11H75.0069ZM76.1669 9.704L76.4469 8.888H79.4709L79.7509 9.704H76.1669ZM82.8142 11L80.9582 5.4H82.0382L83.6942 10.464H83.1582L84.8782 5.4H85.8382L87.5102 10.464H86.9902L88.6862 5.4H89.6782L87.8222 11H86.7182L85.1902 6.432H85.4782L83.9262 11H82.8142Z" fill="white"/>
</g>
</svg>
