<svg width="58" height="16" viewBox="0 0 58 16" fill="none" xmlns="http://www.w3.org/2000/svg">
<g opacity="0.7">
<rect x="0.5" y="0.5" width="57" height="15" rx="1.5" stroke="white"/>
<path d="M4.20903 11V5.4H5.06503L8.57703 9.712H8.15303V5.4H9.18503V11H8.32903L4.81703 6.688H5.24103V11H4.20903ZM10.6856 11V5.4H11.7256V10.12H14.6536V11H10.6856ZM21.6216 5.4H22.6616V11H21.6216V5.4ZM18.7256 11H17.6856V5.4H18.7256V11ZM21.7016 8.6H18.6376V7.712H21.7016V8.6ZM26.7862 11.08C26.3488 11.08 25.9462 11.008 25.5782 10.864C25.2102 10.72 24.8902 10.52 24.6182 10.264C24.3462 10.0027 24.1355 9.69867 23.9862 9.352C23.8368 9 23.7622 8.616 23.7622 8.2C23.7622 7.784 23.8368 7.40267 23.9862 7.056C24.1355 6.704 24.3462 6.4 24.6182 6.144C24.8902 5.88267 25.2102 5.68 25.5782 5.536C25.9462 5.392 26.3462 5.32 26.7782 5.32C27.2155 5.32 27.6155 5.392 27.9782 5.536C28.3462 5.68 28.6662 5.88267 28.9382 6.144C29.2102 6.4 29.4208 6.704 29.5702 7.056C29.7195 7.40267 29.7942 7.784 29.7942 8.2C29.7942 8.616 29.7195 9 29.5702 9.352C29.4208 9.704 29.2102 10.008 28.9382 10.264C28.6662 10.52 28.3462 10.72 27.9782 10.864C27.6155 11.008 27.2182 11.08 26.7862 11.08ZM26.7782 10.168C27.0608 10.168 27.3222 10.12 27.5622 10.024C27.8022 9.928 28.0102 9.792 28.1862 9.616C28.3622 9.43467 28.4982 9.22667 28.5942 8.992C28.6955 8.752 28.7462 8.488 28.7462 8.2C28.7462 7.912 28.6955 7.65067 28.5942 7.416C28.4982 7.176 28.3622 6.968 28.1862 6.792C28.0102 6.61067 27.8022 6.472 27.5622 6.376C27.3222 6.28 27.0608 6.232 26.7782 6.232C26.4955 6.232 26.2342 6.28 25.9942 6.376C25.7595 6.472 25.5515 6.61067 25.3702 6.792C25.1942 6.968 25.0555 7.176 24.9542 7.416C24.8582 7.65067 24.8102 7.912 24.8102 8.2C24.8102 8.48267 24.8582 8.744 24.9542 8.984C25.0555 9.224 25.1942 9.43467 25.3702 9.616C25.5462 9.792 25.7542 9.928 25.9942 10.024C26.2342 10.12 26.4955 10.168 26.7782 10.168ZM30.8965 11V5.4H31.9365V10.12H34.8645V11H30.8965ZM35.6856 11V5.4H38.1336C38.7416 5.4 39.2749 5.51733 39.7336 5.752C40.1923 5.98667 40.5496 6.312 40.8056 6.728C41.0616 7.144 41.1896 7.63467 41.1896 8.2C41.1896 8.76 41.0616 9.25067 40.8056 9.672C40.5496 10.088 40.1923 10.4133 39.7336 10.648C39.2749 10.8827 38.7416 11 38.1336 11H35.6856ZM36.7256 10.12H38.0856C38.5069 10.12 38.8696 10.04 39.1736 9.88C39.4829 9.72 39.7203 9.496 39.8856 9.208C40.0563 8.92 40.1416 8.584 40.1416 8.2C40.1416 7.81067 40.0563 7.47467 39.8856 7.192C39.7203 6.904 39.4829 6.68 39.1736 6.52C38.8696 6.36 38.5069 6.28 38.0856 6.28H36.7256V10.12ZM43.255 7.728H46.039V8.584H43.255V7.728ZM43.335 10.128H46.495V11H42.295V5.4H46.383V6.272H43.335V10.128ZM47.6543 11V5.4H48.5103L50.9583 9.488H50.5103L52.9183 5.4H53.7743L53.7823 11H52.7983L52.7903 6.944H52.9983L50.9503 10.36H50.4863L48.4063 6.944H48.6463V11H47.6543Z" fill="white"/>
</g>
</svg>
