<svg width="108" height="16" viewBox="0 0 108 16" fill="none" xmlns="http://www.w3.org/2000/svg">
<g opacity="0.7">
<rect x="0.5" y="0.5" width="107" height="15" rx="1.5" stroke="white"/>
<path d="M4.0645 11V5.4H4.9205L8.4325 9.712H8.0085V5.4H9.0405V11H8.1845L4.6725 6.688H5.0965V11H4.0645ZM10.5411 11V5.4H11.5811V10.12H14.5091V11H10.5411ZM19.5651 11.08C19.0584 11.08 18.6237 10.9733 18.2611 10.76C17.8984 10.5413 17.6211 10.2267 17.4291 9.816C17.2371 9.40533 17.1411 8.89867 17.1411 8.296C17.1411 7.656 17.2557 7.11467 17.4851 6.672C17.7197 6.22933 18.0424 5.89333 18.4531 5.664C18.8691 5.43467 19.3464 5.32 19.8851 5.32C20.1677 5.32 20.4371 5.34933 20.6931 5.408C20.9544 5.46667 21.1757 5.55733 21.3571 5.68L20.9731 6.464C20.8184 6.36267 20.6504 6.29333 20.4691 6.256C20.2931 6.21333 20.1064 6.192 19.9091 6.192C19.3811 6.192 18.9624 6.35467 18.6531 6.68C18.3437 7.00533 18.1891 7.48533 18.1891 8.12C18.1891 8.22133 18.1917 8.34133 18.1971 8.48C18.2024 8.61333 18.2211 8.74933 18.2531 8.888L17.9331 8.536C18.0291 8.31733 18.1597 8.136 18.3251 7.992C18.4957 7.84267 18.6957 7.73067 18.9251 7.656C19.1597 7.58133 19.4131 7.544 19.6851 7.544C20.0531 7.544 20.3811 7.616 20.6691 7.76C20.9571 7.89867 21.1864 8.09867 21.3571 8.36C21.5277 8.616 21.6131 8.91733 21.6131 9.264C21.6131 9.632 21.5224 9.952 21.3411 10.224C21.1597 10.496 20.9144 10.7067 20.6051 10.856C20.2957 11.0053 19.9491 11.08 19.5651 11.08ZM19.5091 10.264C19.7224 10.264 19.9117 10.2267 20.0771 10.152C20.2424 10.072 20.3704 9.96 20.4611 9.816C20.5571 9.672 20.6051 9.504 20.6051 9.312C20.6051 9.01867 20.5037 8.78667 20.3011 8.616C20.0984 8.44533 19.8264 8.36 19.4851 8.36C19.2611 8.36 19.0637 8.40267 18.8931 8.488C18.7277 8.568 18.5944 8.68 18.4931 8.824C18.3971 8.968 18.3491 9.13333 18.3491 9.32C18.3491 9.49067 18.3944 9.648 18.4851 9.792C18.5757 9.936 18.7064 10.0507 18.8771 10.136C19.0531 10.2213 19.2637 10.264 19.5091 10.264ZM27.3596 11.08C26.933 11.08 26.5356 11.0107 26.1676 10.872C25.805 10.728 25.4876 10.528 25.2156 10.272C24.949 10.0107 24.741 9.704 24.5916 9.352C24.4423 9 24.3676 8.616 24.3676 8.2C24.3676 7.784 24.4423 7.4 24.5916 7.048C24.741 6.696 24.9516 6.392 25.2236 6.136C25.4956 5.87467 25.813 5.67467 26.1756 5.536C26.5383 5.392 26.9356 5.32 27.3676 5.32C27.8263 5.32 28.245 5.4 28.6236 5.56C29.0023 5.71467 29.3223 5.94667 29.5836 6.256L28.9116 6.888C28.709 6.66933 28.4823 6.50667 28.2316 6.4C27.981 6.288 27.709 6.232 27.4156 6.232C27.1223 6.232 26.853 6.28 26.6076 6.376C26.3676 6.472 26.157 6.608 25.9756 6.784C25.7996 6.96 25.661 7.168 25.5596 7.408C25.4636 7.648 25.4156 7.912 25.4156 8.2C25.4156 8.488 25.4636 8.752 25.5596 8.992C25.661 9.232 25.7996 9.44 25.9756 9.616C26.157 9.792 26.3676 9.928 26.6076 10.024C26.853 10.12 27.1223 10.168 27.4156 10.168C27.709 10.168 27.981 10.1147 28.2316 10.008C28.4823 9.896 28.709 9.728 28.9116 9.504L29.5836 10.144C29.3223 10.448 29.0023 10.68 28.6236 10.84C28.245 11 27.8236 11.08 27.3596 11.08ZM29.6709 11L32.1909 5.4H33.2149L35.7429 11H34.6549L32.4869 5.952H32.9029L30.7429 11H29.6709ZM30.8309 9.704L31.1109 8.888H34.1349L34.4149 9.704H30.8309ZM36.4551 11V5.4H38.7591C39.2551 5.4 39.6791 5.48 40.0311 5.64C40.3885 5.8 40.6631 6.02933 40.8551 6.328C41.0471 6.62667 41.1431 6.98133 41.1431 7.392C41.1431 7.80267 41.0471 8.15733 40.8551 8.456C40.6631 8.74933 40.3885 8.976 40.0311 9.136C39.6791 9.29067 39.2551 9.368 38.7591 9.368H37.0311L37.4951 8.896V11H36.4551ZM40.1191 11L38.7031 8.968H39.8151L41.2391 11H40.1191ZM37.4951 9.008L37.0311 8.512H38.7111C39.1698 8.512 39.5138 8.41333 39.7431 8.216C39.9778 8.01867 40.0951 7.744 40.0951 7.392C40.0951 7.03467 39.9778 6.76 39.7431 6.568C39.5138 6.376 39.1698 6.28 38.7111 6.28H37.0311L37.4951 5.768V9.008ZM42.3067 11V5.4H44.7547C45.3627 5.4 45.896 5.51733 46.3547 5.752C46.8134 5.98667 47.1707 6.312 47.4267 6.728C47.6827 7.144 47.8107 7.63467 47.8107 8.2C47.8107 8.76 47.6827 9.25067 47.4267 9.672C47.1707 10.088 46.8134 10.4133 46.3547 10.648C45.896 10.8827 45.3627 11 44.7547 11H42.3067ZM43.3467 10.12H44.7067C45.128 10.12 45.4907 10.04 45.7947 9.88C46.104 9.72 46.3414 9.496 46.5067 9.208C46.6774 8.92 46.7627 8.584 46.7627 8.2C46.7627 7.81067 46.6774 7.47467 46.5067 7.192C46.3414 6.904 46.104 6.68 45.7947 6.52C45.4907 6.36 45.128 6.28 44.7067 6.28H43.3467V10.12ZM50.6521 11.08C50.2147 11.08 49.7961 11.0187 49.3961 10.896C48.9961 10.768 48.6787 10.6053 48.4441 10.408L48.8041 9.6C49.0281 9.776 49.3054 9.92267 49.6361 10.04C49.9667 10.1573 50.3054 10.216 50.6521 10.216C50.9454 10.216 51.1827 10.184 51.3641 10.12C51.5454 10.056 51.6787 9.97067 51.7641 9.864C51.8494 9.752 51.8921 9.62667 51.8921 9.488C51.8921 9.31733 51.8307 9.18133 51.7081 9.08C51.5854 8.97333 51.4254 8.89067 51.2281 8.832C51.0361 8.768 50.8201 8.70933 50.5801 8.656C50.3454 8.60267 50.1081 8.54133 49.8681 8.472C49.6334 8.39733 49.4174 8.304 49.2201 8.192C49.0281 8.07467 48.8707 7.92 48.7481 7.728C48.6254 7.536 48.5641 7.29067 48.5641 6.992C48.5641 6.688 48.6441 6.41067 48.8041 6.16C48.9694 5.904 49.2174 5.70133 49.5481 5.552C49.8841 5.39733 50.3081 5.32 50.8201 5.32C51.1561 5.32 51.4894 5.36267 51.8201 5.448C52.1507 5.53333 52.4387 5.656 52.6841 5.816L52.3561 6.624C52.1054 6.47467 51.8467 6.36533 51.5801 6.296C51.3134 6.22133 51.0574 6.184 50.8121 6.184C50.5241 6.184 50.2894 6.21867 50.1081 6.288C49.9321 6.35733 49.8014 6.448 49.7161 6.56C49.6361 6.672 49.5961 6.8 49.5961 6.944C49.5961 7.11467 49.6547 7.25333 49.7721 7.36C49.8947 7.46133 50.0521 7.54133 50.2441 7.6C50.4414 7.65867 50.6601 7.71733 50.9001 7.776C51.1401 7.82933 51.3774 7.89067 51.6121 7.96C51.8521 8.02933 52.0681 8.12 52.2601 8.232C52.4574 8.344 52.6147 8.496 52.7321 8.688C52.8547 8.88 52.9161 9.12267 52.9161 9.416C52.9161 9.71467 52.8334 9.992 52.6681 10.248C52.5081 10.4987 52.2601 10.7013 51.9241 10.856C51.5881 11.0053 51.1641 11.08 50.6521 11.08ZM58.7823 11.08C58.3449 11.08 57.9423 11.008 57.5743 10.864C57.2063 10.72 56.8863 10.52 56.6143 10.264C56.3423 10.0027 56.1316 9.69867 55.9823 9.352C55.8329 9 55.7583 8.616 55.7583 8.2C55.7583 7.784 55.8329 7.40267 55.9823 7.056C56.1316 6.704 56.3423 6.4 56.6143 6.144C56.8863 5.88267 57.2063 5.68 57.5743 5.536C57.9423 5.392 58.3423 5.32 58.7743 5.32C59.2116 5.32 59.6116 5.392 59.9743 5.536C60.3423 5.68 60.6623 5.88267 60.9343 6.144C61.2063 6.4 61.4169 6.704 61.5663 7.056C61.7156 7.40267 61.7903 7.784 61.7903 8.2C61.7903 8.616 61.7156 9 61.5663 9.352C61.4169 9.704 61.2063 10.008 60.9343 10.264C60.6623 10.52 60.3423 10.72 59.9743 10.864C59.6116 11.008 59.2143 11.08 58.7823 11.08ZM58.7743 10.168C59.0569 10.168 59.3183 10.12 59.5583 10.024C59.7983 9.928 60.0063 9.792 60.1823 9.616C60.3583 9.43467 60.4943 9.22667 60.5903 8.992C60.6916 8.752 60.7423 8.488 60.7423 8.2C60.7423 7.912 60.6916 7.65067 60.5903 7.416C60.4943 7.176 60.3583 6.968 60.1823 6.792C60.0063 6.61067 59.7983 6.472 59.5583 6.376C59.3183 6.28 59.0569 6.232 58.7743 6.232C58.4916 6.232 58.2303 6.28 57.9903 6.376C57.7556 6.472 57.5476 6.61067 57.3663 6.792C57.1903 6.968 57.0516 7.176 56.9503 7.416C56.8543 7.65067 56.8063 7.912 56.8063 8.2C56.8063 8.48267 56.8543 8.744 56.9503 8.984C57.0516 9.224 57.1903 9.43467 57.3663 9.616C57.5423 9.792 57.7503 9.928 57.9903 10.024C58.2303 10.12 58.4916 10.168 58.7743 10.168ZM62.8926 11V5.4H63.7486L66.1966 9.488H65.7486L68.1566 5.4H69.0126L69.0206 11H68.0366L68.0286 6.944H68.2366L66.1886 10.36H65.7246L63.6446 6.944H63.8846V11H62.8926ZM69.7412 11L72.2613 5.4H73.2853L75.8133 11H74.7253L72.5573 5.952H72.9733L70.8133 11H69.7412ZM70.9013 9.704L71.1813 8.888H74.2053L74.4852 9.704H70.9013ZM80.4614 5.4H81.5014V11H80.4614V5.4ZM77.5654 11H76.5254V5.4H77.5654V11ZM80.5414 8.6H77.4774V7.712H80.5414V8.6ZM82.21 11L84.73 5.4H85.754L88.282 11H87.194L85.026 5.952H85.442L83.282 11H82.21ZM83.37 9.704L83.65 8.888H86.674L86.954 9.704H83.37ZM95.1411 5.4H96.1811V11H95.1411V5.4ZM92.2451 11H91.2051V5.4H92.2451V11ZM95.2211 8.6H92.1571V7.712H95.2211V8.6ZM96.6897 11.8L99.3297 4.264H100.226L97.5857 11.8H96.6897ZM100.65 11V5.4H101.69V10.12H104.618V11H100.65Z" fill="white"/>
</g>
</svg>
