<svg width="69" height="16" viewBox="0 0 69 16" fill="none" xmlns="http://www.w3.org/2000/svg">
<g opacity="0.7">
<rect x="0.5" y="0.5" width="68" height="15" rx="1.5" stroke="white"/>
<path d="M4.24809 11V5.4H6.55209C7.04809 5.4 7.47209 5.48 7.82409 5.64C8.18143 5.8 8.45609 6.02933 8.64809 6.328C8.84009 6.62667 8.93609 6.98133 8.93609 7.392C8.93609 7.80267 8.84009 8.15733 8.64809 8.456C8.45609 8.75467 8.18143 8.984 7.82409 9.144C7.47209 9.304 7.04809 9.384 6.55209 9.384H4.82409L5.28809 8.896V11H4.24809ZM5.28809 9.008L4.82409 8.504H6.50409C6.96276 8.504 7.30676 8.408 7.53609 8.216C7.77076 8.01867 7.88809 7.744 7.88809 7.392C7.88809 7.03467 7.77076 6.76 7.53609 6.568C7.30676 6.376 6.96276 6.28 6.50409 6.28H4.82409L5.28809 5.768V9.008ZM9.97466 11V5.4H11.0147V10.12H13.9427V11H9.97466ZM19.5987 11.08C19.1613 11.08 18.7587 11.008 18.3907 10.864C18.0227 10.72 17.7027 10.52 17.4307 10.264C17.1587 10.0027 16.948 9.69867 16.7987 9.352C16.6493 9 16.5747 8.616 16.5747 8.2C16.5747 7.784 16.6493 7.40267 16.7987 7.056C16.948 6.704 17.1587 6.4 17.4307 6.144C17.7027 5.88267 18.0227 5.68 18.3907 5.536C18.7587 5.392 19.1587 5.32 19.5907 5.32C20.028 5.32 20.428 5.392 20.7907 5.536C21.1587 5.68 21.4787 5.88267 21.7507 6.144C22.0227 6.4 22.2333 6.704 22.3827 7.056C22.532 7.40267 22.6067 7.784 22.6067 8.2C22.6067 8.616 22.532 9 22.3827 9.352C22.2333 9.704 22.0227 10.008 21.7507 10.264C21.4787 10.52 21.1587 10.72 20.7907 10.864C20.428 11.008 20.0307 11.08 19.5987 11.08ZM19.5907 10.168C19.8733 10.168 20.1347 10.12 20.3747 10.024C20.6147 9.928 20.8227 9.792 20.9987 9.616C21.1747 9.43467 21.3107 9.22667 21.4067 8.992C21.508 8.752 21.5587 8.488 21.5587 8.2C21.5587 7.912 21.508 7.65067 21.4067 7.416C21.3107 7.176 21.1747 6.968 20.9987 6.792C20.8227 6.61067 20.6147 6.472 20.3747 6.376C20.1347 6.28 19.8733 6.232 19.5907 6.232C19.308 6.232 19.0467 6.28 18.8067 6.376C18.572 6.472 18.364 6.61067 18.1827 6.792C18.0067 6.968 17.868 7.176 17.7667 7.416C17.6707 7.65067 17.6227 7.912 17.6227 8.2C17.6227 8.48267 17.6707 8.744 17.7667 8.984C17.868 9.224 18.0067 9.43467 18.1827 9.616C18.3587 9.792 18.5667 9.928 18.8067 10.024C19.0467 10.12 19.308 10.168 19.5907 10.168ZM23.709 11V5.4H24.565L27.013 9.488H26.565L28.973 5.4H29.829L29.837 11H28.853L28.845 6.944H29.053L27.005 10.36H26.541L24.461 6.944H24.701V11H23.709ZM30.5577 11L33.0777 5.4H34.1017L36.6297 11H35.5417L33.3737 5.952H33.7897L31.6297 11H30.5577ZM31.7177 9.704L31.9977 8.888H35.0217L35.3017 9.704H31.7177ZM41.2778 5.4H42.3178V11H41.2778V5.4ZM38.3818 11H37.3418V5.4H38.3818V11ZM41.3578 8.6H38.2938V7.712H41.3578V8.6ZM43.0264 11L45.5464 5.4H46.5704L49.0984 11H48.0104L45.8424 5.952H46.2584L44.0984 11H43.0264ZM44.1864 9.704L44.4664 8.888H47.4904L47.7704 9.704H44.1864ZM55.9575 5.4H56.9975V11H55.9575V5.4ZM53.0615 11H52.0215V5.4H53.0615V11ZM56.0375 8.6H52.9735V7.712H56.0375V8.6ZM57.5061 11.8L60.1461 4.264H61.0421L58.4021 11.8H57.5061ZM61.4668 11V5.4H62.5068V10.12H65.4348V11H61.4668Z" fill="white"/>
</g>
</svg>
