<svg width="108" height="16" viewBox="0 0 108 16" fill="none" xmlns="http://www.w3.org/2000/svg">
<g opacity="0.7">
<rect x="0.5" y="0.5" width="107" height="15" rx="1.5" stroke="white"/>
<path d="M3.90044 11V5.4H4.75644L8.26844 9.712H7.84444V5.4H8.87644V11H8.02044L4.50844 6.688H4.93244V11H3.90044ZM10.377 11V5.4H11.417V10.12H14.345V11H10.377ZM20.001 11.08C19.5637 11.08 19.161 11.008 18.793 10.864C18.425 10.72 18.105 10.52 17.833 10.264C17.561 10.0027 17.3503 9.69867 17.201 9.352C17.0517 9 16.977 8.616 16.977 8.2C16.977 7.784 17.0517 7.40267 17.201 7.056C17.3503 6.704 17.561 6.4 17.833 6.144C18.105 5.88267 18.425 5.68 18.793 5.536C19.161 5.392 19.561 5.32 19.993 5.32C20.4303 5.32 20.8303 5.392 21.193 5.536C21.561 5.68 21.881 5.88267 22.153 6.144C22.425 6.4 22.6357 6.704 22.785 7.056C22.9343 7.40267 23.009 7.784 23.009 8.2C23.009 8.616 22.9343 9 22.785 9.352C22.6357 9.704 22.425 10.008 22.153 10.264C21.881 10.52 21.561 10.72 21.193 10.864C20.8303 11.008 20.433 11.08 20.001 11.08ZM19.993 10.168C20.2757 10.168 20.537 10.12 20.777 10.024C21.017 9.928 21.225 9.792 21.401 9.616C21.577 9.43467 21.713 9.22667 21.809 8.992C21.9103 8.752 21.961 8.488 21.961 8.2C21.961 7.912 21.9103 7.65067 21.809 7.416C21.713 7.176 21.577 6.968 21.401 6.792C21.225 6.61067 21.017 6.472 20.777 6.376C20.537 6.28 20.2757 6.232 19.993 6.232C19.7103 6.232 19.449 6.28 19.209 6.376C18.9743 6.472 18.7663 6.61067 18.585 6.792C18.409 6.968 18.2703 7.176 18.169 7.416C18.073 7.65067 18.025 7.912 18.025 8.2C18.025 8.48267 18.073 8.744 18.169 8.984C18.2703 9.224 18.409 9.43467 18.585 9.616C18.761 9.792 18.969 9.928 19.209 10.024C19.449 10.12 19.7103 10.168 19.993 10.168ZM25.0634 7.976H27.8554V8.856H25.0634V7.976ZM25.1514 11H24.1114V5.4H28.1994V6.272H25.1514V11ZM31.7346 11.08C31.308 11.08 30.9106 11.0107 30.5426 10.872C30.18 10.728 29.8626 10.528 29.5906 10.272C29.324 10.0107 29.116 9.704 28.9666 9.352C28.8173 9 28.7426 8.616 28.7426 8.2C28.7426 7.784 28.8173 7.4 28.9666 7.048C29.116 6.696 29.3266 6.392 29.5986 6.136C29.8706 5.87467 30.188 5.67467 30.5506 5.536C30.9133 5.392 31.3106 5.32 31.7426 5.32C32.2013 5.32 32.62 5.4 32.9986 5.56C33.3773 5.71467 33.6973 5.94667 33.9586 6.256L33.2866 6.888C33.084 6.66933 32.8573 6.50667 32.6066 6.4C32.356 6.288 32.084 6.232 31.7906 6.232C31.4973 6.232 31.228 6.28 30.9826 6.376C30.7426 6.472 30.532 6.608 30.3506 6.784C30.1746 6.96 30.036 7.168 29.9346 7.408C29.8386 7.648 29.7906 7.912 29.7906 8.2C29.7906 8.488 29.8386 8.752 29.9346 8.992C30.036 9.232 30.1746 9.44 30.3506 9.616C30.532 9.792 30.7426 9.928 30.9826 10.024C31.228 10.12 31.4973 10.168 31.7906 10.168C32.084 10.168 32.356 10.1147 32.6066 10.008C32.8573 9.896 33.084 9.728 33.2866 9.504L33.9586 10.144C33.6973 10.448 33.3773 10.68 32.9986 10.84C32.62 11 32.1986 11.08 31.7346 11.08ZM33.9631 11.8L36.6031 4.264H37.4991L34.8591 11.8H33.9631ZM37.9239 11V5.4H40.2279C40.7239 5.4 41.1479 5.48 41.4999 5.64C41.8572 5.8 42.1319 6.02933 42.3239 6.328C42.5159 6.62667 42.6119 6.98133 42.6119 7.392C42.6119 7.80267 42.5159 8.15733 42.3239 8.456C42.1319 8.75467 41.8572 8.984 41.4999 9.144C41.1479 9.304 40.7239 9.384 40.2279 9.384H38.4999L38.9639 8.896V11H37.9239ZM38.9639 9.008L38.4999 8.504H40.1799C40.6385 8.504 40.9825 8.408 41.2119 8.216C41.4465 8.01867 41.5639 7.744 41.5639 7.392C41.5639 7.03467 41.4465 6.76 41.2119 6.568C40.9825 6.376 40.6385 6.28 40.1799 6.28H38.4999L38.9639 5.768V9.008ZM43.6504 11V5.4H44.6904V11H43.6504ZM46.2051 11V5.4H47.0611L50.5731 9.712H50.1491V5.4H51.1811V11H50.3251L46.8131 6.688H47.2371V11H46.2051ZM53.6417 7.728H56.4257V8.584H53.6417V7.728ZM53.7217 10.128H56.8817V11H52.6817V5.4H56.7697V6.272H53.7217V10.128ZM57.2491 11L59.7691 5.4H60.7931L63.3211 11H62.2331L60.0651 5.952H60.4811L58.3211 11H57.2491ZM58.4091 9.704L58.6891 8.888H61.7131L61.9931 9.704H58.4091ZM64.0333 11V5.4H66.3373C66.8333 5.4 67.2573 5.48 67.6093 5.64C67.9666 5.8 68.2413 6.02933 68.4333 6.328C68.6253 6.62667 68.7213 6.98133 68.7213 7.392C68.7213 7.80267 68.6253 8.15733 68.4333 8.456C68.2413 8.75467 67.9666 8.984 67.6093 9.144C67.2573 9.304 66.8333 9.384 66.3373 9.384H64.6093L65.0733 8.896V11H64.0333ZM65.0733 9.008L64.6093 8.504H66.2893C66.7479 8.504 67.0919 8.408 67.3212 8.216C67.5559 8.01867 67.6733 7.744 67.6733 7.392C67.6733 7.03467 67.5559 6.76 67.3212 6.568C67.0919 6.376 66.7479 6.28 66.2893 6.28H64.6093L65.0733 5.768V9.008ZM69.7598 11V5.4H72.0638C72.5598 5.4 72.9838 5.48 73.3358 5.64C73.6931 5.8 73.9678 6.02933 74.1598 6.328C74.3518 6.62667 74.4478 6.98133 74.4478 7.392C74.4478 7.80267 74.3518 8.15733 74.1598 8.456C73.9678 8.75467 73.6931 8.984 73.3358 9.144C72.9838 9.304 72.5598 9.384 72.0638 9.384H70.3358L70.7998 8.896V11H69.7598ZM70.7998 9.008L70.3358 8.504H72.0158C72.4745 8.504 72.8185 8.408 73.0478 8.216C73.2825 8.01867 73.3998 7.744 73.3998 7.392C73.3998 7.03467 73.2825 6.76 73.0478 6.568C72.8185 6.376 72.4745 6.28 72.0158 6.28H70.3358L70.7998 5.768V9.008ZM75.4864 11V5.4H76.5264V10.12H79.4544V11H75.4864ZM81.2354 7.728H84.0194V8.584H81.2354V7.728ZM81.3154 10.128H84.4754V11H80.2754V5.4H84.3634V6.272H81.3154V10.128ZM87.8458 11V5.4H90.1498C90.6458 5.4 91.0698 5.48 91.4218 5.64C91.7791 5.8 92.0538 6.02933 92.2458 6.328C92.4378 6.62667 92.5338 6.98133 92.5338 7.392C92.5338 7.80267 92.4378 8.15733 92.2458 8.456C92.0538 8.75467 91.7791 8.984 91.4218 9.144C91.0698 9.304 90.6458 9.384 90.1498 9.384H88.4218L88.8858 8.896V11H87.8458ZM88.8858 9.008L88.4218 8.504H90.1018C90.5604 8.504 90.9044 8.408 91.1337 8.216C91.3684 8.01867 91.4858 7.744 91.4858 7.392C91.4858 7.03467 91.3684 6.76 91.1337 6.568C90.9044 6.376 90.5604 6.28 90.1018 6.28H88.4218L88.8858 5.768V9.008ZM93.5723 11V5.4H95.8763C96.3723 5.4 96.7963 5.48 97.1483 5.64C97.5056 5.8 97.7803 6.02933 97.9723 6.328C98.1643 6.62667 98.2603 6.98133 98.2603 7.392C98.2603 7.80267 98.1643 8.15733 97.9723 8.456C97.7803 8.74933 97.5056 8.976 97.1483 9.136C96.7963 9.29067 96.3723 9.368 95.8763 9.368H94.1483L94.6123 8.896V11H93.5723ZM97.2363 11L95.8203 8.968H96.9323L98.3563 11H97.2363ZM94.6123 9.008L94.1483 8.512H95.8283C96.287 8.512 96.631 8.41333 96.8603 8.216C97.095 8.01867 97.2123 7.744 97.2123 7.392C97.2123 7.03467 97.095 6.76 96.8603 6.568C96.631 6.376 96.287 6.28 95.8283 6.28H94.1483L94.6123 5.768V9.008ZM102.04 11.08C101.603 11.08 101.2 11.0107 100.832 10.872C100.469 10.728 100.152 10.528 99.8799 10.272C99.6079 10.0107 99.3972 9.704 99.2479 9.352C99.0985 9 99.0239 8.616 99.0239 8.2C99.0239 7.784 99.0985 7.4 99.2479 7.048C99.3972 6.696 99.6079 6.392 99.8799 6.136C100.157 5.87467 100.48 5.67467 100.848 5.536C101.216 5.392 101.619 5.32 102.056 5.32C102.531 5.32 102.957 5.39733 103.336 5.552C103.72 5.70667 104.043 5.93333 104.304 6.232L103.648 6.872C103.429 6.65333 103.192 6.49333 102.936 6.392C102.685 6.28533 102.408 6.232 102.104 6.232C101.811 6.232 101.539 6.28 101.288 6.376C101.037 6.472 100.821 6.608 100.64 6.784C100.459 6.96 100.317 7.168 100.216 7.408C100.12 7.648 100.072 7.912 100.072 8.2C100.072 8.48267 100.12 8.744 100.216 8.984C100.317 9.224 100.459 9.43467 100.64 9.616C100.821 9.792 101.035 9.928 101.28 10.024C101.525 10.12 101.797 10.168 102.096 10.168C102.373 10.168 102.64 10.1253 102.896 10.04C103.157 9.94933 103.405 9.8 103.64 9.592L104.232 10.368C103.939 10.6027 103.597 10.7813 103.208 10.904C102.824 11.0213 102.435 11.08 102.04 11.08ZM103.248 10.232V8.136H104.232V10.368L103.248 10.232Z" fill="white"/>
</g>
</svg>
